<svg xmlns="http://www.w3.org/2000/svg" viewBox="0 0 566.9 566.9" height="566.9" width="566.9"><g class="nc-icon-wrapper js-transition-icon" data-effect="rotate" data-event="mouseenter"><g class="js-transition-icon__state" style=""><style type="text/css">
	.st0{fill:none;stroke:#010202;stroke-width:39.9448;stroke-linecap:round;stroke-miterlimit:10;}
</style><line id="XMLID_2_" class="st0" x1="29.8" y1="30" x2="533.1" y2="533.3"></line><line id="XMLID_1_" class="st0" x1="533.1" y1="30" x2="29.8" y2="533.3"></line></g><g class="js-transition-icon__state" aria-hidden="true" style="display: none;"><style type="text/css">
	.st0{fill:#010202;stroke:#010202;stroke-width:8.2543;stroke-miterlimit:10;}
</style><path id="XMLID_3_" class="st0" d="M498.6,105.1c0,0-119.5-67.5-252.7-74.3c-46.1-3.1-92.2,4.7-134.7,22.8
	c-35.1,16.1-67,42-33.9,77.5c15.6,15.4,35,26.3,56.2,31.7C188.9,178.9,315.8,195.5,498.6,105.1z"></path><path id="XMLID_2_" class="st0" d="M62.9,281c0,0,119.5,67.5,252.7,74.3c46.2,3.2,92.6-4.7,135.2-22.9c35-16.5,66.9-42,33.9-77.4
	c-15.6-15.4-35-26.3-56.2-31.8C372.5,207.2,245.7,190.6,62.9,281z"></path><path id="XMLID_1_" class="st0" d="M498.6,466c0,0-119.5-67.5-252.7-74.3c-46.1-3.1-92.2,4.7-134.7,22.7
	c-35.1,16.5-67,42.1-33.9,77.5c15.6,15.4,35,26.4,56.2,31.8C188.9,539.7,315.8,556.3,498.6,466z"></path></g></g><script>!function(){"use strict";if(!window.requestAnimationFrame){var a=null;window.requestAnimationFrame=function(t,i){var e=(new Date).getTime();a||(a=e);var s=Math.max(0,16-(e-a)),n=window.setTimeout(function(){t(e+s)},s);return a=e+s,n}}function r(t,i,e,s){return 1&gt;(t/=s/2)?e/2*t*t*t*t+i:-e/2*((t-=2)*t*t*t-2)+i}function e(t){return t?[1,0]:[0,1]}function t(t){this.element=t,this.svg=function t(i){var e=i.parentNode;if("svg"!==e.tagName)e=t(e);return e;}(this.element),this.getSize(),this.states=this.element.querySelectorAll(".js-transition-icon__state"),this.time={start:null,total:200},this.status={interacted:!1,animating:!1},this.animation={effect:this.element.getAttribute("data-effect"),event:this.element.getAttribute("data-event")},this.init()}t.prototype.getSize=function(){var t=this.svg.getAttribute("viewBox");this.size=t?{width:t.split(" ")[2],height:t.split(" ")[3]}:this.svg.getBoundingClientRect()},t.prototype.init=function(){var t=this;this.svg.addEventListener(t.animation.event,function(){t.status.animating||(t.status.animating=!0,window.requestAnimationFrame(t.triggerAnimation.bind(t)))})},t.prototype.triggerAnimation=function(t){var i=this.getProgress(t);this.animateIcon(i),this.checkProgress(i)},t.prototype.getProgress=function(t){return this.time.start||(this.time.start=t),t-this.time.start},t.prototype.checkProgress=function(t){if(this.time.total&gt;t)window.requestAnimationFrame(this.triggerAnimation.bind(this));else{this.status={interacted:!this.status.interacted,animating:!1},this.time.start=null;var i=e(this.status.interacted);this.states[i[0]].removeAttribute("aria-hidden"),this.states[i[1]].setAttribute("aria-hidden","true")}},t.prototype.animateIcon=function(t){if(t&gt;this.time.total){t=this.time.total;}if(0&gt;t){t=0;};var i=e(this.status.interacted);this.states[i[0]].style.display=t&gt;this.time.total/2?"none":"block",this.states[i[1]].style.display=t&gt;this.time.total/2?"block":"none","scale"==this.animation.effect?this.scaleIcon(t,i[0],i[1]):this.rotateIcon(t,i[0],i[1])},t.prototype.scaleIcon=function(t,i,e){var s=r(Math.min(t,this.time.total/2),1,-.2,this.time.total/2).toFixed(2),n=r(Math.max(t-this.time.total/2,0),.2,-.2,this.time.total/2).toFixed(2);this.states[i].setAttribute("transform","translate("+this.size.width*(1-s)/2+" "+this.size.height*(1-s)/2+") scale("+s+")"),this.states[e].setAttribute("transform","translate("+this.size.width*n/2+" "+this.size.height*n/2+") scale("+(1-n)+")")},t.prototype.rotateIcon=function(t,i,e){var s=r(t,0,180,this.time.total).toFixed(2);this.states[i].setAttribute("transform","rotate(-"+s+" "+this.size.width/2+" "+this.size.height/2+")"),this.states[e].setAttribute("transform","rotate("+(180-s)+" "+this.size.width/2+" "+this.size.height/2+")")};var i=document.querySelectorAll(".js-transition-icon");if(i)for(var s=0;i.length&gt;s;s++)new t(i[s])}();</script></svg>