<svg id="Calque_1" data-name="Calque 1" xmlns="http://www.w3.org/2000/svg" viewBox="0 0 54.91 62.32"><defs><style>.cls-1{stroke:#000;stroke-miterlimit:10;}</style></defs><title>menuburger</title><path class="cls-1" d="M75.93,26.91s-14.48-8.18-30.61-9A35.45,35.45,0,0,0,29,20.67c-4.25,1.95-8.12,5.09-4.11,9.39a14.85,14.85,0,0,0,6.81,3.84C38.42,35.84,53.79,37.86,75.93,26.91Z" transform="translate(-22.09 -17.33)"/><path class="cls-1" d="M23.15,48.21s14.48,8.18,30.61,9a35.49,35.49,0,0,0,16.38-2.78c4.24-2,8.11-5.09,4.11-9.38a15,15,0,0,0-6.81-3.85C60.66,39.28,45.3,37.26,23.15,48.21Z" transform="translate(-22.09 -17.33)"/><path class="cls-1" d="M75.93,70.63s-14.48-8.18-30.61-9A35.71,35.71,0,0,0,29,64.38c-4.25,2-8.12,5.1-4.11,9.39a14.86,14.86,0,0,0,6.81,3.85C38.42,79.56,53.79,81.57,75.93,70.63Z" transform="translate(-22.09 -17.33)"/></svg>